<svg width="20" height="24" viewBox="0 0 20 24" fill="none" xmlns="http://www.w3.org/2000/svg">
<path d="M16.8749 10.1145C16.4246 10.9125 16.1824 11.8121 16.1706 12.7295C16.1717 13.7616 16.4748 14.7705 17.0421 15.6304C17.6094 16.4903 18.4158 17.1633 19.3607 17.5653C18.9892 18.7793 18.4292 19.9266 17.7014 20.9647C16.724 22.4353 15.6993 23.8721 14.0728 23.8986C12.4924 23.9353 11.9613 22.9631 10.1485 22.9631C8.31873 22.9631 7.75265 23.8721 6.23694 23.9353C4.68789 23.993 3.50417 22.3657 2.49125 20.9088C0.466611 17.9336 -1.10986 12.5243 1.00362 8.84354C1.49153 7.96164 2.19824 7.22191 3.05488 6.69643C3.91152 6.17094 4.88888 5.87762 5.89172 5.84506C7.44208 5.81296 8.88185 6.89823 9.83499 6.89823C10.7702 6.89823 12.5492 5.59993 14.3843 5.79372C15.2446 5.82081 16.0867 6.04929 16.8438 6.46101C17.6009 6.87274 18.2522 7.45636 18.7458 8.16554C17.9687 8.64609 17.3251 9.31655 16.8749 10.1145Z" fill="white"/>
<path d="M14.4035 0C14.5092 1.38967 14.0723 2.7661 13.1855 3.83698C12.7609 4.36828 12.2219 4.79573 11.6092 5.08712C10.9965 5.37852 10.326 5.52627 9.64834 5.51924C9.6051 4.85096 9.69322 4.18065 9.90768 3.54665C10.1221 2.91264 10.4587 2.32737 10.8982 1.82429C11.797 0.794495 13.0486 0.143139 14.4035 0Z" fill="white"/>
</svg>
